inDegrees=yes
name=ik_S42_A07_T01
DataType=double
version=3
OpenSimVersion=4.3-2021-08-27-4bc7ad9
endheader
time	pelvis_tilt	pelvis_list	pelvis_rotation	pelvis_tx	pelvis_ty	pelvis_tz	hip_flexion_r	hip_adduction_r	hip_rotation_r	knee_angle_r	knee_angle_r_beta	ankle_angle_r	subtalar_angle_r	mtp_angle_r	hip_flexion_l	hip_adduction_l	hip_rotation_l	knee_angle_l	knee_angle_l_beta	ankle_angle_l	subtalar_angle_l	mtp_angle_l	lumbar_extension	lumbar_bending	lumbar_rotation	arm_flex_r	arm_add_r	arm_rot_r	elbow_flex_r	pro_sup_r	wrist_flex_r	wrist_dev_r	arm_flex_l	arm_add_l	arm_rot_l	elbow_flex_l	pro_sup_l	wrist_flex_l	wrist_dev_l
0	0	0	0	0	0.9399999999999999	0	0	0	0	0	0	0	0	0	0	0	0	0	0	0	0	0	0	0	0	0	0	0	0	89.99999999963507	0	0	0	0	0	0	89.99999999869995	0	0
0.02	-8.806164495057262	-1.392506171191944	23.10757958301523	0	0.9399999999999999	0	3.68219207029243	-1.71827199761113	-1.23892854705718	5.655414414201523	0.09870560209256293	0	0	0	3.68219207029243	-1.71827199761113	-1.23892854705718	5.655414414201523	0.09870560209256293	0	0	0	-5.800576555498333	-2.197183833887692	3.924431558509766	33.78154405634024	-4.729858599839749	6.05348787715565	53.30216053975685	121.6617859715689	0	0	28.84850702544029	-0.3519201676219589	6.386353236755217	50.04516661439027	115.028869024361	0	0
0.04	-7.556191707377211	-3.236080327568633	26.47267760376839	0	0.9399999999999999	0	30.54059831406228	-10.33127269101636	-9.480289866441977	30.00826108915726	0.5237429588038939	0	0	0	30.54059831406228	-10.33127269101636	-9.480289866441977	30.00826108915726	0.5237429588038939	0	0	0	-6.196733200760643	0.3440831910548727	0.8553074422681427	33.77572530566014	-4.75660443879111	6.087178086115054	53.30574696771714	121.5951928901353	0	0	28.84029394823742	-0.3387433545141048	6.382550568665842	50.03510976969368	115.03497549917	0	0
0.06	-7.552740357075416	-3.238640218373326	26.46016898066165	0	0.9399999999999999	0	30.57036170371514	-10.32874859847415	-9.482726662151769	30.04624717784321	0.5244059411214183	0	0	0	30.57036170371514	-10.32874859847415	-9.482726662151769	30.04624717784321	0.5244059411214183	0	0	0	-6.197903596818088	0.3411830453221359	0.847734284954023	33.79255301362706	-4.758445538700487	6.129332591964392	53.3272358319136	121.5496857675668	0	0	28.84997434427479	-0.3492605925643679	6.381184330603991	50.04945018658732	115.0020148736185	0	0
0.08	-7.533323633457806	-3.231954973252097	26.44896675387484	0	0.9399999999999999	0	30.5750813148155	-10.32838823711229	-9.483090921821441	30.05243140340562	0.5245138762191683	0	0	0	30.5750813148155	-10.32838823711229	-9.483090921821441	30.05243140340562	0.5245138762191683	0	0	0	-6.17841229651479	0.3398257791866111	0.8369580831412526	33.8475734308585	-4.872371794897996	6.242462923039549	53.30579531002005	121.4159295211404	0	0	28.81627851007887	-0.3569110379275037	6.363449824263085	50.03416134831653	114.9792475129088	0	0
0.1	-7.515576694019897	-3.229649748656841	26.43714891280969	0	0.9399999999999999	0	30.5802804104286	-10.32799094721711	-9.483492453387109	30.05923508835638	0.5246326229228274	0	0	0	30.5802804104286	-10.32799094721711	-9.483492453387109	30.05923508835638	0.5246326229228274	0	0	0	-6.162360471579831	0.3352513023815242	0.8255356790675128	34.02500087862969	-5.096321978031639	6.3790085665639	53.26138724989435	121.1449758784223	0	0	28.82985840157145	-0.3434585196720124	6.279955179273721	49.98262104692427	115.0186877934832	0	0
0.12	-7.486562323258272	-3.222417278361309	26.43590160207837	0	0.9399999999999999	0	30.58578380983231	-10.32757063440949	-9.483917389590671	30.06643604043041	0.5247583032457976	0	0	0	30.58578380983231	-10.32757063440949	-9.483917389590671	30.06643604043041	0.5247583032457976	0	0	0	-6.133907913135602	0.329779884434006	0.8163919834516477	34.21442979228948	-5.327242483673215	6.511303346438464	53.15115852897591	120.9134544294674	0	0	28.82153967300305	-0.3445887816039095	6.222041795615143	49.91431304762899	115.0677658819388	0	0
0.14	-7.43586139250982	-3.232500335813185	26.44596668158995	0	0.9399999999999999	0	30.58716285830987	-10.32746690743684	-9.48402285608962	30.06826062418668	0.524790148239823	0	0	0	30.58716285830987	-10.32746690743684	-9.48402285608962	30.06826062418668	0.524790148239823	0	0	0	-6.093199907247657	0.2988268525484463	0.808525095761945	34.27510438131847	-5.414907342033371	6.550336428855633	53.1044222746429	120.8770287011571	0	0	28.7803029149766	-0.3999467038272769	6.192575442390424	49.87116015278509	115.0922017768164	0	0
0.16	-7.404381500049964	-3.215767846409464	26.44967912273666	0	0.9399999999999999	0	30.59052468600462	-10.32721200356981	-9.484281330009393	30.07267760369997	0.5248672390753228	0	0	0	30.59052468600462	-10.32721200356981	-9.484281330009393	30.07267760369997	0.5248672390753228	0	0	0	-6.058586607971409	0.3017872147682515	0.7926483107928299	34.33885788218914	-5.491133214404826	6.64283489137022	52.91830331213964	120.6927975022155	0	0	28.76697621506378	-0.3446885266993403	6.09723828363482	49.76654843298401	115.1908963144494	0	0
0.18	-7.356392442898309	-3.220307825068987	26.45723800513792	0	0.9399999999999999	0	30.59701942623562	-10.32627334282113	-9.485028634394276	30.07926721174019	0.5249822494320407	0	0	0	30.59701942623562	-10.32627334282113	-9.485028634394276	30.07926721174019	0.5249822494320407	0	0	0	-6.018679811687468	0.2778702841531474	0.7796592562798613	34.25140172750687	-5.436699193081346	6.62727542238887	52.88676755495016	120.6847188464634	0	0	28.75058568335463	-0.3436830986121794	6.02964897339688	49.66679717590604	115.2825300243939	0	0
0.2	-7.243290573878975	-3.221566491301259	26.51441590446534	0	0.9399999999999999	0	30.59954548996476	-10.32608204969411	-9.485222797303072	30.08258389710986	0.5250401365119942	0	0	0	30.59954548996476	-10.32608204969411	-9.485222797303072	30.08258389710986	0.5250401365119942	0	0	0	-5.916617651934364	0.222835838027973	0.8022504871770104	34.14590393092328	-5.458410105829786	6.559136486651574	52.77438125841969	120.583211263754	0	0	28.61919429343389	-0.3556640298527064	6.074087089299304	49.56719548224538	115.3253695034581	0	0
0.22	-7.203606632436483	-3.22128315323195	26.54646626200272	0	0.9399999999999999	0	30.60173580338878	-10.3259169649193	-9.485390646545591	30.08547015868745	0.5250905112795969	0	0	0	30.60173580338878	-10.3259169649193	-9.485390646545591	30.08547015868745	0.5250905112795969	0	0	0	-5.880224053038135	0.2032381766091872	0.8170647337996469	34.13642792245477	-5.519540310427124	6.549599587178538	52.70220630495781	120.5484881555566	0	0	28.55769641498224	-0.3663026661260806	6.118057571729663	49.55278014746185	115.3300142043767	0	0
0.24	-7.170887144476749	-3.221084824777269	26.57125147535647	0	0.9399999999999999	0	30.60498960697852	-10.32567039026839	-9.485640879733223	30.08973820416293	0.5251650027257688	0	0	0	30.60498960697852	-10.32567039026839	-9.485640879733223	30.08973820416293	0.5251650027257688	0	0	0	-5.851326425107134	0.1894892914225483	0.8097410058084807	34.19833281449112	-5.688695870758997	6.681540028018125	52.56203030168952	120.3514802811752	0	0	28.54224445958444	-0.3363568915582391	6.075170679690065	49.50610643583019	115.3785814712933	0	0
0.26	-7.129352665648093	-3.225632547519191	26.606796706203	0	0.9399999999999999	0	30.61128258314384	-10.32519070524245	-9.486126702398147	30.0979511691251	0.5253083460057096	0	0	0	30.61128258314384	-10.32519070524245	-9.486126702398147	30.0979511691251	0.5253083460057096	0	0	0	-5.817340694392538	0.1683457882390832	0.7959738161383987	34.20753759715628	-5.861343012227967	6.845786533077816	52.6486575473374	120.0209526855869	0	0	28.58248856084195	-0.2832555899527736	5.953936392765466	49.35846049289457	115.5265841809822	0	0
